<mxfile host="app.diagrams.net" modified="2022-12-13T15:56:12.378Z" agent="5.0 (X11; Linux x86_64) AppleWebKit/537.36 (KHTML, like Gecko) Chrome/108.0.0.0 Safari/537.36" etag="l7StQVYDac15R2sbCYrG" version="20.6.2" type="github">
  <diagram id="tD1SHnHAwm1Vo4-uI_2h" name="Page-1">
    <mxGraphModel dx="2062" dy="1128" grid="1" gridSize="10" guides="1" tooltips="1" connect="1" arrows="1" fold="1" page="1" pageScale="1" pageWidth="827" pageHeight="1169" math="0" shadow="0">
      <root>
        <mxCell id="0" />
        <mxCell id="1" parent="0" />
        <mxCell id="IlkH0OPReSVDijkY-aTf-1" value="express food" style="shape=umlFrame;whiteSpace=wrap;html=1;" parent="1" vertex="1">
          <mxGeometry x="180" y="70" width="520" height="650" as="geometry" />
        </mxCell>
        <mxCell id="IlkH0OPReSVDijkY-aTf-3" value="AJOUT D&#39;UN PLAT DU JOUR" style="text;html=1;align=center;verticalAlign=middle;resizable=0;points=[];autosize=1;strokeColor=none;fillColor=none;" parent="1" vertex="1">
          <mxGeometry x="60" y="15" width="180" height="30" as="geometry" />
        </mxCell>
        <mxCell id="IlkH0OPReSVDijkY-aTf-4" value="Voir les plats du jour dans la commande" style="ellipse;whiteSpace=wrap;html=1;fontSize=14;" parent="1" vertex="1">
          <mxGeometry x="450" y="140" width="140" height="70" as="geometry" />
        </mxCell>
        <mxCell id="IlkH0OPReSVDijkY-aTf-13" value="Client" style="shape=umlActor;verticalLabelPosition=bottom;verticalAlign=top;html=1;" parent="1" vertex="1">
          <mxGeometry x="80" y="290" width="30" height="60" as="geometry" />
        </mxCell>
        <mxCell id="IlkH0OPReSVDijkY-aTf-15" value="Voir tout les plat du jour" style="ellipse;whiteSpace=wrap;html=1;fontSize=15;" parent="1" vertex="1">
          <mxGeometry x="220" y="220" width="140" height="70" as="geometry" />
        </mxCell>
        <mxCell id="IlkH0OPReSVDijkY-aTf-16" value="" style="endArrow=none;endFill=0;endSize=12;html=1;rounded=0;entryX=0;entryY=0.3333333333333333;entryDx=0;entryDy=0;entryPerimeter=0;startArrow=classic;startFill=1;" parent="1" source="IlkH0OPReSVDijkY-aTf-15" target="IlkH0OPReSVDijkY-aTf-13" edge="1">
          <mxGeometry width="160" relative="1" as="geometry">
            <mxPoint x="720" y="120" as="sourcePoint" />
            <mxPoint x="880" y="120" as="targetPoint" />
          </mxGeometry>
        </mxCell>
        <mxCell id="IlkH0OPReSVDijkY-aTf-19" value="&lt;h1 style=&quot;font-size: 17px;&quot;&gt;Ajout d&#39;un plat du jour&lt;/h1&gt;&lt;div style=&quot;font-size: 17px;&quot;&gt;Le client ajoute à sa commande un certain nombre d&#39;un plat du jour, puis il confirme l&#39;ajout.&lt;/div&gt;&lt;div style=&quot;font-size: 17px;&quot;&gt;&lt;br style=&quot;font-size: 17px;&quot;&gt;&lt;/div&gt;&lt;div style=&quot;font-size: 17px;&quot;&gt;Il peut modifier la quantité de plat du jour, dans son panier.&lt;/div&gt;&lt;div style=&quot;font-size: 17px;&quot;&gt;&lt;br&gt;&lt;/div&gt;&lt;div style=&quot;font-size: 17px;&quot;&gt;Le client peut voir tout les plats du jour qui ont été disponible , les plat du jour disponible seront mis en valeur, il pourra éventuellement voir les plats du jour qu&#39;il a déjà commander.&lt;/div&gt;&lt;div style=&quot;font-size: 17px;&quot;&gt;&lt;br style=&quot;font-size: 17px;&quot;&gt;&lt;/div&gt;&lt;div style=&quot;font-size: 17px;&quot;&gt;&lt;br style=&quot;font-size: 17px;&quot;&gt;&lt;/div&gt;&lt;div style=&quot;font-size: 17px;&quot;&gt;&lt;br style=&quot;font-size: 17px;&quot;&gt;&lt;/div&gt;&lt;div style=&quot;font-size: 17px;&quot;&gt;&lt;br style=&quot;font-size: 17px;&quot;&gt;&lt;/div&gt;" style="text;html=1;strokeColor=none;fillColor=none;spacing=5;spacingTop=-20;whiteSpace=wrap;overflow=hidden;rounded=0;fontSize=17;" parent="1" vertex="1">
          <mxGeometry x="20" y="790" width="800" height="280" as="geometry" />
        </mxCell>
        <mxCell id="IlkH0OPReSVDijkY-aTf-25" value="" style="endArrow=classic;html=1;rounded=0;fontSize=16;dashed=1;endFill=1;" parent="1" source="IlkH0OPReSVDijkY-aTf-15" target="IlkH0OPReSVDijkY-aTf-4" edge="1">
          <mxGeometry width="50" height="50" relative="1" as="geometry">
            <mxPoint x="357.0177313378322" y="315.29441312396193" as="sourcePoint" />
            <mxPoint x="482.90007419977746" y="214.67994064017785" as="targetPoint" />
            <Array as="points" />
          </mxGeometry>
        </mxCell>
        <mxCell id="IlkH0OPReSVDijkY-aTf-26" value="&lt;font style=&quot;font-size: 12px;&quot;&gt;&amp;lt;&amp;lt;extends&amp;gt;&amp;gt;&lt;/font&gt;" style="edgeLabel;html=1;align=center;verticalAlign=middle;resizable=0;points=[];fontSize=16;" parent="IlkH0OPReSVDijkY-aTf-25" vertex="1" connectable="0">
          <mxGeometry x="0.3091" y="1" relative="1" as="geometry">
            <mxPoint x="16" y="15" as="offset" />
          </mxGeometry>
        </mxCell>
        <mxCell id="lJfV17oLrQAdOIgikARS-1" value="Commander un plat du jour" style="ellipse;whiteSpace=wrap;html=1;fontSize=14;" vertex="1" parent="1">
          <mxGeometry x="220" y="380" width="140" height="80" as="geometry" />
        </mxCell>
        <mxCell id="lJfV17oLrQAdOIgikARS-2" value="" style="endArrow=classic;html=1;rounded=0;fontSize=14;exitX=1;exitY=0.3333333333333333;exitDx=0;exitDy=0;exitPerimeter=0;" edge="1" parent="1" source="IlkH0OPReSVDijkY-aTf-13" target="lJfV17oLrQAdOIgikARS-1">
          <mxGeometry width="50" height="50" relative="1" as="geometry">
            <mxPoint x="100" y="510" as="sourcePoint" />
            <mxPoint x="150" y="460" as="targetPoint" />
          </mxGeometry>
        </mxCell>
        <mxCell id="lJfV17oLrQAdOIgikARS-3" value="choisir le nombre" style="ellipse;whiteSpace=wrap;html=1;fontSize=14;" vertex="1" parent="1">
          <mxGeometry x="530" y="385" width="140" height="70" as="geometry" />
        </mxCell>
        <mxCell id="lJfV17oLrQAdOIgikARS-4" value="&amp;lt;&amp;lt;extends&amp;gt;&amp;gt;" style="endArrow=none;html=1;rounded=0;fontSize=14;startArrow=classicThin;startFill=1;endFill=0;dashed=1;" edge="1" parent="1" source="lJfV17oLrQAdOIgikARS-3" target="lJfV17oLrQAdOIgikARS-1">
          <mxGeometry x="-0.0667" y="-20" width="50" height="50" relative="1" as="geometry">
            <mxPoint x="320" y="520" as="sourcePoint" />
            <mxPoint x="370" y="470" as="targetPoint" />
            <Array as="points" />
            <mxPoint as="offset" />
          </mxGeometry>
        </mxCell>
        <mxCell id="lJfV17oLrQAdOIgikARS-5" value="Modifier le nombre" style="ellipse;whiteSpace=wrap;html=1;fontSize=14;" vertex="1" parent="1">
          <mxGeometry x="530" y="540" width="140" height="70" as="geometry" />
        </mxCell>
        <mxCell id="lJfV17oLrQAdOIgikARS-6" value="&amp;lt;&amp;lt;extends&amp;gt;&amp;gt;" style="endArrow=none;html=1;rounded=0;fontSize=14;startArrow=classicThin;startFill=1;endFill=0;dashed=1;" edge="1" parent="1" source="lJfV17oLrQAdOIgikARS-5" target="lJfV17oLrQAdOIgikARS-1">
          <mxGeometry x="-0.0667" y="-20" width="50" height="50" relative="1" as="geometry">
            <mxPoint x="520" y="420" as="sourcePoint" />
            <mxPoint x="370" y="420" as="targetPoint" />
            <Array as="points" />
            <mxPoint as="offset" />
          </mxGeometry>
        </mxCell>
        <mxCell id="lJfV17oLrQAdOIgikARS-7" value="voir les plats du jour disponibles" style="ellipse;whiteSpace=wrap;html=1;fontSize=14;" vertex="1" parent="1">
          <mxGeometry x="530" y="230" width="140" height="70" as="geometry" />
        </mxCell>
        <mxCell id="lJfV17oLrQAdOIgikARS-8" value="&amp;lt;&amp;lt;includes&amp;gt;&amp;gt;" style="endArrow=classic;html=1;rounded=0;dashed=1;fontSize=14;" edge="1" parent="1" source="lJfV17oLrQAdOIgikARS-7" target="IlkH0OPReSVDijkY-aTf-15">
          <mxGeometry x="-0.0627" y="10" width="50" height="50" relative="1" as="geometry">
            <mxPoint x="-40" y="460" as="sourcePoint" />
            <mxPoint x="10" y="410" as="targetPoint" />
            <mxPoint as="offset" />
          </mxGeometry>
        </mxCell>
      </root>
    </mxGraphModel>
  </diagram>
</mxfile>
